<svg width="106" height="153" viewBox="0 0 106 153" fill="none" xmlns="http://www.w3.org/2000/svg">
<circle cx="5.31977" cy="5.31977" r="5.31977" fill="#90FF39"/>
<circle cx="5.31977" cy="5.31977" r="5.31977" transform="translate(35.4651)" fill="#90FF39"/>
<circle cx="5.31977" cy="5.31977" r="5.31977" transform="translate(70.9302)" fill="#90FF39"/>
<circle cx="5.31977" cy="5.31977" r="5.31977" transform="translate(0 35.4651)" fill="#90FF39"/>
<circle cx="5.31977" cy="5.31977" r="5.31977" transform="translate(35.4651 35.4651)" fill="#90FF39"/>
<circle cx="5.31977" cy="5.31977" r="5.31977" transform="translate(70.9302 35.4651)" fill="#90FF39"/>
<circle cx="5.31977" cy="5.31977" r="5.31977" transform="translate(0 70.9302)" fill="#90FF39"/>
<circle cx="5.31977" cy="5.31977" r="5.31977" transform="translate(35.4651 70.9302)" fill="#90FF39"/>
<circle cx="5.31977" cy="5.31977" r="5.31977" transform="translate(70.9302 70.9302)" fill="#90FF39"/>
<circle cx="5.31977" cy="5.31977" r="5.31977" transform="translate(0 106.395)" fill="#90FF39"/>
<circle cx="5.31977" cy="5.31977" r="5.31977" transform="translate(35.4651 106.395)" fill="#90FF39"/>
<circle cx="5.31977" cy="5.31977" r="5.31977" transform="translate(70.9302 106.395)" fill="#90FF39"/>
<circle cx="5.31977" cy="5.31977" r="5.31977" transform="translate(0 141.86)" fill="#90FF39"/>
<circle cx="5.31977" cy="5.31977" r="5.31977" transform="translate(35.4651 141.86)" fill="#90FF39"/>
<circle cx="5.31977" cy="5.31977" r="5.31977" transform="translate(70.9302 141.86)" fill="#90FF39"/>
</svg>
